<?xml version="1.0" standalone="no"?>
<!DOCTYPE svg PUBLIC "-//W3C//DTD SVG 20010904//EN"
 "http://www.w3.org/TR/2001/REC-SVG-20010904/DTD/svg10.dtd">
<svg version="1.0" xmlns="http://www.w3.org/2000/svg"
 width="260.000000pt" height="260.000000pt" viewBox="0 0 260.000000 260.000000"
 preserveAspectRatio="xMidYMid meet">
<metadata>
Created by potrace 1.14, written by Peter Selinger 2001-2017
</metadata>
<g transform="translate(0.000000,260.000000) scale(0.100000,-0.100000)"
fill="#000000" stroke="none">
<path d="M1255 2586 c-80 -29 -147 -90 -244 -221 -28 -39 -55 -74 -59 -80 -79
-103 -199 -361 -226 -487 -3 -13 -10 -41 -16 -63 -5 -22 -13 -60 -16 -85 -3
-24 -7 -47 -9 -51 -8 -12 -18 -165 -18 -259 0 -153 10 -250 40 -405 8 -44 16
-89 18 -100 2 -16 17 -71 31 -120 2 -5 8 -31 15 -58 6 -26 15 -47 20 -47 6 0
8 4 5 9 -6 9 -10 32 -25 141 -9 69 -7 391 3 450 18 102 56 245 79 304 47 116
184 360 217 386 4 3 11 12 16 22 5 9 29 40 54 68 25 29 53 62 63 74 10 11 60
64 111 117 118 121 147 165 153 239 9 99 -48 169 -140 174 -23 2 -55 -2 -72
-8z"/>
<path d="M2190 2563 c-62 -12 -150 -34 -194 -49 -79 -26 -266 -110 -276 -123
-3 -4 -12 -10 -20 -13 -32 -12 -181 -130 -253 -200 -114 -112 -185 -205 -294
-383 -20 -33 -102 -202 -130 -268 -26 -64 -101 -276 -107 -305 -3 -15 -10 -37
-23 -67 -3 -5 5 1 16 15 11 14 21 30 21 36 1 38 175 338 250 429 102 124 255
251 392 325 124 66 329 138 445 155 15 2 55 9 88 14 107 18 134 21 216 27 173
11 267 80 274 199 5 96 -80 197 -186 220 -61 14 -105 11 -219 -12z"/>
<path d="M386 1895 c-31 -21 -101 -114 -92 -123 3 -2 1 -13 -4 -22 -5 -10 -12
-42 -15 -72 -8 -67 -8 -312 -1 -358 4 -19 9 -53 12 -75 16 -115 21 -133 54
-236 97 -298 289 -557 565 -765 55 -40 100 -72 102 -70 2 2 -25 32 -59 68
-122 124 -205 239 -266 366 -33 68 -86 224 -98 287 -4 22 -9 47 -10 55 -14 72
-19 143 -19 315 0 110 3 225 7 255 4 30 10 82 13 115 4 33 8 66 10 72 8 25
-17 129 -38 160 -36 54 -105 66 -161 28z"/>
<path d="M58 856 c-49 -45 -63 -141 -33 -225 36 -104 216 -326 328 -408 29
-21 54 -40 57 -44 14 -19 250 -133 283 -137 4 0 20 -3 35 -6 114 -25 143 -29
257 -30 61 -1 133 2 160 6 28 4 66 10 85 13 131 20 133 30 5 29 -207 -2 -386
56 -545 177 -129 98 -249 240 -361 426 -29 49 -59 96 -67 106 -8 9 -11 17 -7
17 14 0 -58 70 -87 86 -36 19 -84 15 -110 -10z"/>
</g>
</svg>
